<?xml version="1.0" encoding="UTF-8"?>
<svg width="210px" height="210px" viewBox="0 0 210 210" version="1.1" xmlns="http://www.w3.org/2000/svg" xmlns:xlink="http://www.w3.org/1999/xlink">
    <!-- Generator: Sketch 49.3 (51167) - http://www.bohemiancoding.com/sketch -->
    <title>placeHolder</title>
    <desc>Created with Sketch.</desc>
    <defs>
        <rect id="path-1" x="0" y="0" width="200" height="200"></rect>
        <filter x="-5.5%" y="-3.0%" width="109.0%" height="109.0%" filterUnits="objectBoundingBox" id="filter-2">
            <feOffset dx="-2" dy="3" in="SourceAlpha" result="shadowOffsetOuter1"></feOffset>
            <feGaussianBlur stdDeviation="2.5" in="shadowOffsetOuter1" result="shadowBlurOuter1"></feGaussianBlur>
            <feComposite in="shadowBlurOuter1" in2="SourceAlpha" operator="out" result="shadowBlurOuter1"></feComposite>
            <feColorMatrix values="0 0 0 0 0   0 0 0 0 0   0 0 0 0 0  0 0 0 0.5 0" type="matrix" in="shadowBlurOuter1"></feColorMatrix>
        </filter>
    </defs>
    <g id="Page-1" stroke="none" stroke-width="1" fill="none" fill-rule="evenodd">
        <g id="placeHolder" transform="translate(7.000000, 2.000000)">
            <g id="Rectangle-11">
                <use fill="black" fill-opacity="1" filter="url(#filter-2)" xlink:href="#path-1"></use>
                <use fill="#FFFFFF" fill-rule="evenodd" xlink:href="#path-1"></use>
                <rect stroke="#979797" stroke-width="1" x="0.5" y="0.5" width="199" height="199"></rect>
            </g>
            <path d="M68.7582855,70.6142289 L72.8417831,70.6142289 C78.6037642,84.3797384 81.4847548,103.556789 81.4847548,128.145382 C81.4847548,152.733974 78.6037642,171.765791 72.8417831,185.240831 C76.0872819,165.065311 77.7100313,145.504699 77.7100313,126.558994 C77.7100313,107.61329 74.726116,88.9650346 68.7582855,70.6142289 Z" id="Rectangle-10" fill="#CBDCCA" transform="translate(75.121520, 127.927530) rotate(199.000000) translate(-75.121520, -127.927530) "></path>
            <path d="M101.475802,76.0327969 C100.412966,75.3941802 106.186573,67.6805815 107.639056,64.1788157 C109.470794,59.7627079 110.980292,53.9730748 111.696333,47.5543436 C112.490364,40.4365027 122.547388,34.477982 125.410702,36.1984347 C128.274016,37.9188873 125.237181,48.2308155 118.627741,59.2307709 C112.018301,70.2307263 104.339116,77.7532495 101.475802,76.0327969 Z M99.1069504,78.8276926 C98.934384,77.599819 108.562425,77.2324296 112.197885,76.1574879 C116.782596,74.8018695 122.231943,72.3314351 127.670854,68.8484657 C133.702155,64.9861412 144.661885,69.0520978 145.126784,72.3600267 C145.591684,75.6679557 135.666668,79.7973982 122.958642,81.5833948 C110.250615,83.3693914 99.5718495,82.1356215 99.1069504,78.8276926 Z M96.1415252,78.6480006 C97.0028603,77.756062 103.219981,85.1168742 106.305259,87.3198556 C110.196131,90.0980549 115.497813,92.8712482 121.590958,95.0128382 C128.347751,97.387684 131.891217,108.527322 129.570754,110.930232 C127.250291,113.333142 117.885796,108.054462 108.65457,99.1399695 C99.4233429,90.2254775 93.8210621,81.0509105 96.1415252,78.6480006 Z M94.6669378,76.1016757 C95.90216,76.2097437 94.0942954,85.6736631 94.3238858,89.4577559 C94.6134242,94.2299085 95.7947051,100.095316 97.9649175,106.178326 C100.371503,112.923879 93.9443541,122.688071 90.6166276,122.396933 C87.2889011,122.105794 85.4979387,111.506234 86.6164009,98.7221516 C87.7348632,85.9380694 91.3392113,75.8105374 94.6669378,76.1016757 Z M96.1807814,72.9545927 C96.8561015,73.9944944 88.2853986,78.3964482 85.4448428,80.907088 C81.8625929,84.073278 77.9678574,88.6152457 74.5104968,94.070471 C70.6765704,100.119864 59.0253341,101.066638 57.2060012,98.2651109 C55.3866684,95.463584 62.6366095,87.5265453 73.3991978,80.5372387 C84.1617862,73.547932 94.3614486,70.1530658 96.1807814,72.9545927 Z M99.1153278,71.3283652 C98.7321651,72.5076188 89.9174863,68.6171709 86.1787331,67.9896413 C81.4637584,67.1982581 75.4829501,67.0298331 69.0676562,67.7760438 C61.953627,68.6035296 53.8854848,60.1446425 54.9177369,56.9676974 C55.9499889,53.7907522 66.6807623,54.4300743 78.88559,58.3956632 C91.0904177,62.3612521 100.14758,68.15142 99.1153278,71.3283652 Z M101.321378,72.8589442 C100.156215,73.2830289 97.7950718,63.9417684 95.9877656,60.6092448 C93.7085557,56.4065699 90.1591232,51.5899358 85.6214519,46.9940284 C80.5895504,41.8975481 82.2880001,30.3319543 85.4269848,29.1894573 C88.5659696,28.0469603 94.6687007,36.8965311 99.0578163,48.9555269 C103.446932,61.0145227 104.460363,71.7164472 101.321378,72.8589442 Z" id="Oval-8" fill="#EDD8A8"></path>
        </g>
    </g>
</svg>