<?xml version="1.0" encoding="UTF-8"?>
<svg width="369px" height="299px" viewBox="0 0 369 299" version="1.1" xmlns="http://www.w3.org/2000/svg" xmlns:xlink="http://www.w3.org/1999/xlink">
    <!-- Generator: Sketch 49.3 (51167) - http://www.bohemiancoding.com/sketch -->
    <title>waterCan</title>
    <desc>Created with Sketch.</desc>
    <defs>
        <rect id="path-1" x="0" y="0" width="347" height="277" rx="80"></rect>
        <filter x="-4.5%" y="-4.5%" width="111.8%" height="114.8%" filterUnits="objectBoundingBox" id="filter-2">
            <feOffset dx="5" dy="8" in="SourceAlpha" result="shadowOffsetOuter1"></feOffset>
            <feGaussianBlur stdDeviation="5.5" in="shadowOffsetOuter1" result="shadowBlurOuter1"></feGaussianBlur>
            <feColorMatrix values="0 0 0 0 0   0 0 0 0 0   0 0 0 0 0  0 0 0 0.5 0" type="matrix" in="shadowBlurOuter1"></feColorMatrix>
        </filter>
        <filter x="-4.4%" y="-3.8%" width="108.9%" height="120.2%" filterUnits="objectBoundingBox" id="filter-3">
            <feOffset dx="2" dy="5" in="SourceAlpha" result="shadowOffsetOuter1"></feOffset>
            <feGaussianBlur stdDeviation="2" in="shadowOffsetOuter1" result="shadowBlurOuter1"></feGaussianBlur>
            <feColorMatrix values="0 0 0 0 0   0 0 0 0 0   0 0 0 0 0  0 0 0 0.5 0" type="matrix" in="shadowBlurOuter1" result="shadowMatrixOuter1"></feColorMatrix>
            <feMerge>
                <feMergeNode in="shadowMatrixOuter1"></feMergeNode>
                <feMergeNode in="SourceGraphic"></feMergeNode>
            </feMerge>
        </filter>
        <path d="M38,96 C17.0131795,96 -7.10542736e-14,78.3152476 -7.10542736e-14,56.5 C-7.10542736e-14,34.6847524 17.0131795,17 38,17 C58.9868205,17 76,34.6847524 76,56.5 C76,78.3152476 58.9868205,96 38,96 Z M38.5,87 C54.7924001,87 68,73.3446849 68,56.5 C68,39.6553151 54.7924001,26 38.5,26 C22.2075999,26 9,39.6553151 9,56.5 C9,73.3446849 22.2075999,87 38.5,87 Z" id="path-4"></path>
        <filter x="-9.2%" y="-6.3%" width="118.4%" height="117.7%" filterUnits="objectBoundingBox" id="filter-5">
            <feOffset dx="0" dy="2" in="SourceAlpha" result="shadowOffsetOuter1"></feOffset>
            <feGaussianBlur stdDeviation="2" in="shadowOffsetOuter1" result="shadowBlurOuter1"></feGaussianBlur>
            <feColorMatrix values="0 0 0 0 0   0 0 0 0 0   0 0 0 0 0  0 0 0 0.5 0" type="matrix" in="shadowBlurOuter1"></feColorMatrix>
        </filter>
        <path d="M131.794729,39.4241269 L178.287092,0.673942772 L194.305418,0.673942772 L135.570787,66.6479796 L142,113 L30,113 L46.1179057,-7.60280727e-13 L126.326443,-7.60280727e-13 L131.794729,39.4241269 Z" id="path-6"></path>
        <filter x="-4.3%" y="-4.4%" width="108.5%" height="112.4%" filterUnits="objectBoundingBox" id="filter-7">
            <feOffset dx="0" dy="2" in="SourceAlpha" result="shadowOffsetOuter1"></feOffset>
            <feGaussianBlur stdDeviation="2" in="shadowOffsetOuter1" result="shadowBlurOuter1"></feGaussianBlur>
            <feColorMatrix values="0 0 0 0 0   0 0 0 0 0   0 0 0 0 0  0 0 0 0.5 0" type="matrix" in="shadowBlurOuter1"></feColorMatrix>
        </filter>
    </defs>
    <g id="Page-1" stroke="none" stroke-width="1" fill="none" fill-rule="evenodd">
        <g id="waterCan" transform="translate(6.000000, 3.000000)">
            <g id="Rectangle-7">
                <use fill="black" fill-opacity="1" filter="url(#filter-2)" xlink:href="#path-1"></use>
                <use fill="#C0EBBD" fill-rule="evenodd" xlink:href="#path-1"></use>
            </g>
            <g id="Can" filter="url(#filter-3)" transform="translate(166.690164, 145.309017) rotate(34.000000) translate(-166.690164, -145.309017) translate(48.190164, 85.809017)">
                <path d="M192.605371,0.712237575 C209.123237,0.953295792 225.023368,5.17423766 232.586231,13.3967732 C235.486047,16.549527 236.307213,21.0083469 236.526094,25.1658588 C236.538302,25.39775 236.550831,25.7518639 236.562194,26.1301889 C236.567235,26.2979935 236.572046,26.4705613 236.576499,26.6393396 C236.587308,27.0490826 236.596004,27.4364918 236.600732,27.6791959 C236.61117,28.2149792 236.600732,27.9591645 236.600732,28.4726638 C236.600732,28.7906556 236.566938,29.1023882 236.50195,29.4069516 C235.244497,35.2999608 222.308486,38.5088678 216.528226,32.4400034 C208.368842,23.8732263 215.908629,1.63695478 192.605371,0.729889499 L192.605371,0.712237575 Z" id="Combined-Shape" fill="#77B3FA"></path>
                <g id="Group-4" transform="translate(0.854812, 5.795965)">
                    <g id="Combined-Shape">
                        <use fill="black" fill-opacity="1" filter="url(#filter-5)" xlink:href="#path-4"></use>
                        <use fill="#FF5F72" fill-rule="evenodd" xlink:href="#path-4"></use>
                    </g>
                    <g id="Combined-Shape">
                        <use fill="black" fill-opacity="1" filter="url(#filter-7)" xlink:href="#path-6"></use>
                        <use fill="#FF5F72" fill-rule="evenodd" xlink:href="#path-6"></use>
                    </g>
                </g>
            </g>
        </g>
    </g>
</svg>